<svg data-v-d3f97b9e="" xmlns="http://www.w3.org/2000/svg" viewBox="0 0 442 90"><!----><!----><!----><g data-v-d3f97b9e="" id="f2e987d4-03be-489e-a53c-4e43bb200078" fill="black" transform="matrix(5.400540684472137,0,0,5.400540684472137,124.33871311891093,-29.8109839984419)"><path d="M4.29 7.67L3.23 10.65L5.28 10.65L4.29 7.67ZM3.54 14.40L-0.12 14.40L-0.03 13.67L1.03 13.13L3.86 6.05L5.55 5.72L8.22 13.16L9.19 13.63L9.12 14.40L4.88 14.40L4.98 13.68L6.13 13.14L5.63 11.72L2.86 11.72L2.35 13.15L3.63 13.62L3.54 14.40ZM13.61 14.39L9.32 14.39L9.43 13.59L10.45 13.22L10.45 9.71L9.41 9.28L9.55 8.44L11.78 8.22L11.99 8.44L11.86 9.70L11.99 9.73L11.99 9.73Q12.24 8.92 12.68 8.52L12.68 8.52L12.68 8.52Q13.13 8.12 13.60 8.12L13.60 8.12L13.60 8.12Q14.08 8.12 14.35 8.39L14.35 8.39L14.35 8.39Q14.61 8.65 14.61 9.05L14.61 9.05L14.61 9.05Q14.61 9.71 13.99 10.23L13.99 10.23L13.99 10.23Q13.51 9.93 13.13 9.93L13.13 9.93L13.13 9.93Q12.75 9.93 12.47 10.25L12.47 10.25L12.47 10.25Q12.20 10.58 12.08 11.10L12.08 11.10L12.08 13.13L13.69 13.45L13.61 14.39ZM17.32 12.10L17.32 12.10Q17.32 12.69 17.54 12.95L17.54 12.95L17.54 12.95Q17.77 13.20 18.25 13.20L18.25 13.20L18.25 13.20Q18.72 13.20 19.20 12.91L19.20 12.91L19.37 13.55L19.37 13.55Q19.07 13.98 18.54 14.27L18.54 14.27L18.54 14.27Q18.02 14.55 17.22 14.55L17.22 14.55L17.22 14.55Q16.43 14.55 16.02 14.10L16.02 14.10L16.02 14.10Q15.61 13.64 15.62 12.50L15.62 12.50L15.64 9.45L14.87 9.45L14.87 8.76L14.87 8.76Q15.84 8.10 16.61 7L16.61 7L17.35 7L17.35 8.50L19.25 8.50L19.18 9.47L17.33 9.47L17.32 12.10ZM19.71 13.55L19.71 13.55L19.87 11.40L20.83 11.55L21.10 12.82L21.10 12.82Q21.31 13.13 21.72 13.32L21.72 13.32L21.72 13.32Q22.13 13.51 22.61 13.51L22.61 13.51L22.61 13.51Q23.08 13.51 23.45 13.23L23.45 13.23L23.45 13.23Q23.82 12.94 23.82 12.54L23.82 12.54L23.82 12.54Q23.82 12.14 23.60 11.88L23.60 11.88L23.60 11.88Q23.38 11.62 23.03 11.43L23.03 11.43L23.03 11.43Q22.67 11.24 22.25 11.04L22.25 11.04L22.25 11.04Q21.83 10.85 21.40 10.61L21.40 10.61L21.40 10.61Q20.97 10.37 20.62 10.08L20.62 10.08L20.62 10.08Q19.82 9.41 19.82 8.34L19.82 8.34L19.82 8.34Q19.82 6.86 21.21 6.15L21.21 6.15L21.21 6.15Q22.02 5.73 23.00 5.73L23.00 5.73L23.00 5.73Q23.58 5.73 24.22 5.91L24.22 5.91L24.22 5.91Q24.86 6.10 25.18 6.38L25.18 6.38L25.00 8.59L24.07 8.44L23.85 7.30L23.85 7.30Q23.69 7.03 23.31 6.83L23.31 6.83L23.31 6.83Q22.93 6.63 22.51 6.63L22.51 6.63L22.51 6.63Q22.09 6.63 21.82 6.89L21.82 6.89L21.82 6.89Q21.55 7.14 21.55 7.55L21.55 7.55L21.55 7.55Q21.55 7.95 21.79 8.22L21.79 8.22L21.79 8.22Q22.02 8.50 22.39 8.71L22.39 8.71L22.39 8.71Q22.77 8.91 23.22 9.12L23.22 9.12L23.22 9.12Q23.67 9.32 24.13 9.57L24.13 9.57L24.13 9.57Q24.58 9.82 24.96 10.12L24.96 10.12L24.96 10.12Q25.80 10.79 25.80 11.88L25.80 11.88L25.80 11.88Q25.80 13.38 24.22 14.15L24.22 14.15L24.22 14.15Q23.36 14.56 22.42 14.56L22.42 14.56L22.42 14.56Q21.49 14.56 20.76 14.27L20.76 14.27L20.76 14.27Q20.03 13.99 19.71 13.55ZM28.54 11.71L28.54 11.71Q28.54 12.41 28.74 12.70L28.74 12.70L28.74 12.70Q28.94 13.00 29.43 13.00L29.43 13.00L29.43 13.00Q29.91 13.00 30.37 12.56L30.37 12.56L30.37 9.86L29.43 9.46L29.58 8.44L31.81 8.20L32.06 8.46L32.06 12.39L32.06 12.39Q32.06 12.88 32.24 13.07L32.24 13.07L32.24 13.07Q32.42 13.26 32.90 13.40L32.90 13.40L33.15 13.47L33.04 14.33L33.04 14.33Q32.31 14.59 31.72 14.59L31.72 14.59L31.72 14.59Q31.13 14.59 30.82 14.33L30.82 14.33L30.82 14.33Q30.50 14.08 30.50 13.59L30.50 13.59L30.50 13.51L30.41 13.49L30.41 13.49Q30.08 14.02 29.58 14.30L29.58 14.30L29.58 14.30Q29.08 14.58 28.51 14.58L28.51 14.58L28.51 14.58Q27.64 14.58 27.24 14.11L27.24 14.11L27.24 14.11Q26.84 13.64 26.84 12.57L26.84 12.57L26.84 9.82L25.94 9.27L26.11 8.37L28.27 8.22L28.54 8.49L28.54 11.71ZM35.17 7.40L35.17 7.40L35.17 7.40Q34.58 7.40 34.28 7.12L34.28 7.12L34.28 7.12Q33.97 6.84 33.97 6.44L33.97 6.44L33.97 6.44Q33.97 6.04 34.30 5.78L34.30 5.78L34.30 5.78Q34.63 5.52 35.18 5.52L35.18 5.52L35.18 5.52Q35.73 5.52 36.07 5.79L36.07 5.79L36.07 5.79Q36.40 6.05 36.40 6.45L36.40 6.45L36.40 6.45Q36.40 6.84 36.08 7.12L36.08 7.12L36.08 7.12Q35.75 7.40 35.17 7.40ZM37.11 14.40L33.33 14.40L33.39 13.52L34.44 13.21L34.44 9.78L33.42 9.22L33.57 8.37L35.81 8.20L36.09 8.48L36.09 13.21L37.19 13.53L37.11 14.40ZM39.87 12.10L39.87 12.10Q39.87 12.69 40.10 12.95L40.10 12.95L40.10 12.95Q40.33 13.20 40.80 13.20L40.80 13.20L40.80 13.20Q41.28 13.20 41.75 12.91L41.75 12.91L41.92 13.55L41.92 13.55Q41.62 13.98 41.09 14.27L41.09 14.27L41.09 14.27Q40.57 14.55 39.77 14.55L39.77 14.55L39.77 14.55Q38.98 14.55 38.57 14.10L38.57 14.10L38.57 14.10Q38.17 13.64 38.17 12.50L38.17 12.50L38.19 9.45L37.42 9.45L37.42 8.76L37.42 8.76Q38.39 8.10 39.16 7L39.16 7L39.90 7L39.90 8.50L41.80 8.50L41.73 9.47L39.88 9.47L39.87 12.10ZM45.64 10.23L45.64 10.23L45.64 10.23Q45.64 9.12 44.88 9.12L44.88 9.12L44.88 9.12Q44.49 9.12 44.22 9.59L44.22 9.59L44.22 9.59Q43.95 10.07 43.93 10.88L43.93 10.88L45.60 10.72L45.60 10.72Q45.64 10.55 45.64 10.23ZM42.22 11.46L42.22 11.46L42.22 11.46Q42.22 10.72 42.49 10.07L42.49 10.07L42.49 10.07Q42.76 9.42 43.20 9.00L43.20 9.00L43.20 9.00Q44.14 8.08 45.31 8.08L45.31 8.08L45.31 8.08Q46.25 8.08 46.81 8.72L46.81 8.72L46.81 8.72Q47.37 9.35 47.37 10.43L47.37 10.43L47.37 10.43Q47.37 10.94 47.24 11.48L47.24 11.48L43.96 11.55L43.96 11.55Q44.00 12.33 44.47 12.85L44.47 12.85L44.47 12.85Q44.95 13.37 45.82 13.37L45.82 13.37L45.82 13.37Q46.69 13.37 47.39 12.99L47.39 12.99L47.52 13.62L47.52 13.62Q47.11 14.12 46.41 14.36L46.41 14.36L46.41 14.36Q45.71 14.60 44.97 14.60L44.97 14.60L44.97 14.60Q43.78 14.60 43.00 13.78L43.00 13.78L43.00 13.78Q42.22 12.96 42.22 11.46ZM48.24 16.63L47.65 15.72L47.65 15.72Q49.16 14.40 49.16 12.75L49.16 12.75L49.16 7.06L47.93 6.67L48.03 5.89L52.34 5.89L52.24 6.67L51.08 7.03L51.07 11.59L51.07 11.59Q51.07 13.01 50.88 13.65L50.88 13.65L50.88 13.65Q50.68 14.29 50.48 14.64L50.48 14.64L50.48 14.64Q50.29 14.98 49.95 15.33L49.95 15.33L49.95 15.33Q49.38 15.91 48.24 16.63L48.24 16.63ZM52.67 13.55L52.67 13.55L52.83 11.40L53.79 11.55L54.06 12.82L54.06 12.82Q54.26 13.13 54.67 13.32L54.67 13.32L54.67 13.32Q55.08 13.51 55.56 13.51L55.56 13.51L55.56 13.51Q56.04 13.51 56.41 13.23L56.41 13.23L56.41 13.23Q56.78 12.94 56.78 12.54L56.78 12.54L56.78 12.54Q56.78 12.14 56.56 11.88L56.56 11.88L56.56 11.88Q56.33 11.62 55.98 11.43L55.98 11.43L55.98 11.43Q55.63 11.24 55.21 11.04L55.21 11.04L55.21 11.04Q54.78 10.85 54.36 10.61L54.36 10.61L54.36 10.61Q53.93 10.37 53.58 10.08L53.58 10.08L53.58 10.08Q52.78 9.41 52.78 8.34L52.78 8.34L52.78 8.34Q52.78 6.86 54.17 6.15L54.17 6.15L54.17 6.15Q54.97 5.73 55.96 5.73L55.96 5.73L55.96 5.73Q56.53 5.73 57.17 5.91L57.17 5.91L57.17 5.91Q57.81 6.10 58.13 6.38L58.13 6.38L57.96 8.59L57.03 8.44L56.81 7.30L56.81 7.30Q56.64 7.03 56.26 6.83L56.26 6.83L56.26 6.83Q55.88 6.63 55.47 6.63L55.47 6.63L55.47 6.63Q55.05 6.63 54.78 6.89L54.78 6.89L54.78 6.89Q54.51 7.14 54.51 7.55L54.51 7.55L54.51 7.55Q54.51 7.95 54.74 8.22L54.74 8.22L54.74 8.22Q54.97 8.50 55.35 8.71L55.35 8.71L55.35 8.71Q55.73 8.91 56.18 9.12L56.18 9.12L56.18 9.12Q56.63 9.32 57.08 9.57L57.08 9.57L57.08 9.57Q57.54 9.82 57.91 10.12L57.91 10.12L57.91 10.12Q58.75 10.79 58.75 11.88L58.75 11.88L58.75 11.88Q58.75 13.38 57.18 14.15L57.18 14.15L57.18 14.15Q56.31 14.56 55.38 14.56L55.38 14.56L55.38 14.56Q54.44 14.56 53.71 14.27L53.71 14.27L53.71 14.27Q52.99 13.99 52.67 13.55Z"></path></g><!----><g data-v-d3f97b9e="" id="c493e9c1-5d6a-4c57-b805-c250bfa57922" transform="matrix(1.2025172322188924,0,0,1.2025172322188924,13.405450542180475,-14.55313481765743)" stroke="none" fill="black"><path d="M25.913 32.797l16.736 29.195h12.234L25.676 12.753l-36.79 63.561 5.939 11.136z"></path><path d="M31.367 43.632l-5.456-9.375L-4.631 87.45h73.934l5.811-11.826-61.882.063z"></path><path d="M21.448 62.713l-7.035 12.479h60.701L38.308 12.607H26.672l29.683 50.106z"></path></g><!----><g data-v-d3f97b9e="" id="aeb200a7-8819-4d47-a798-8db8297b103c" fill="black" transform="matrix(0.6403420232741814,0,0,0.6403420232741814,123.47293699059554,56.35645247466363)"><path d="M1.55 6.36L0.34 6.18L0.39 5.89L6.58 5.89L6.36 8.09L6.02 8.04L5.88 6.24L2.26 6.24L2.26 10.07L4.53 10.07L4.80 9.11L5.18 9.06L4.97 11.72L4.59 11.77L4.47 10.43L2.26 10.43L2.26 13.92L3.94 14.03L3.86 14.40L0.37 14.40L0.39 14.11L1.55 13.90L1.55 6.36ZM15.07 9.75L15.07 9.75L15.07 9.75Q15.07 11.03 15.44 12.01L15.44 12.01L15.44 12.01Q15.80 13.00 16.52 13.57L16.52 13.57L16.52 13.57Q17.23 14.14 18.21 14.14L18.21 14.14L18.21 14.14Q18.79 14.14 19.28 13.92L19.28 13.92L19.28 13.92Q19.77 13.70 20.11 13.33L20.11 13.33L20.11 13.33Q20.46 12.96 20.70 12.49L20.70 12.49L20.70 12.49Q20.95 12.01 21.06 11.50L21.06 11.50L21.06 11.50Q21.18 10.99 21.18 10.48L21.18 10.48L21.18 10.48Q21.18 8.50 20.33 7.29L20.33 7.29L20.33 7.29Q19.48 6.07 18.03 6.07L18.03 6.07L18.03 6.07Q17.45 6.07 16.95 6.28L16.95 6.28L16.95 6.28Q16.46 6.49 16.12 6.85L16.12 6.85L16.12 6.85Q15.78 7.21 15.54 7.69L15.54 7.69L15.54 7.69Q15.30 8.16 15.19 8.69L15.19 8.69L15.19 8.69Q15.07 9.21 15.07 9.75ZM14.32 10.16L14.32 10.16L14.32 10.16Q14.32 8.16 15.42 6.92L15.42 6.92L15.42 6.92Q16.52 5.69 18.35 5.69L18.35 5.69L18.35 5.69Q19.49 5.69 20.31 6.27L20.31 6.27L20.31 6.27Q21.12 6.86 21.52 7.84L21.52 7.84L21.52 7.84Q21.92 8.83 21.92 10.11L21.92 10.11L21.92 10.11Q21.92 10.75 21.77 11.38L21.77 11.38L21.77 11.38Q21.62 12.00 21.29 12.58L21.29 12.58L21.29 12.58Q20.97 13.17 20.50 13.61L20.50 13.61L20.50 13.61Q20.04 14.05 19.37 14.32L19.37 14.32L19.37 14.32Q18.69 14.58 17.88 14.58L17.88 14.58L17.88 14.58Q16.83 14.58 16.01 13.98L16.01 13.98L16.01 13.98Q15.18 13.37 14.75 12.37L14.75 12.37L14.75 12.37Q14.32 11.37 14.32 10.16ZM31.46 6.18L31.46 10.11L33.01 10.11L33.01 10.11Q33.69 9.86 34.15 9.28L34.15 9.28L34.15 9.28Q34.61 8.70 34.61 8.02L34.61 8.02L34.61 8.02Q34.61 7.11 33.99 6.63L33.99 6.63L33.99 6.63Q33.37 6.15 32.29 6.15L32.29 6.15L31.46 6.18ZM32.83 14.40L29.64 14.40L29.69 14.11L30.75 13.90L30.75 6.51L29.66 6.37L29.72 6.13L29.72 6.13Q31.55 5.83 32.63 5.83L32.63 5.83L32.63 5.83Q33.39 5.83 34.00 6.05L34.00 6.05L34.00 6.05Q34.61 6.27 34.99 6.73L34.99 6.73L34.99 6.73Q35.36 7.19 35.36 7.83L35.36 7.83L35.36 7.83Q35.36 8.57 34.94 9.14L34.94 9.14L34.94 9.14Q34.51 9.72 33.48 10.23L33.48 10.23L33.48 10.23L34.79 12.19L34.79 12.19Q35.51 13.23 35.85 13.58L35.85 13.58L35.85 13.58Q36.20 13.92 36.58 14.05L36.58 14.05L36.91 14.16L36.87 14.42L36.87 14.42Q36.57 14.52 36.23 14.52L36.23 14.52L36.23 14.52Q35.94 14.52 35.69 14.40L35.69 14.40L35.69 14.40Q35.44 14.28 35.19 14.01L35.19 14.01L35.19 14.01Q34.95 13.75 34.77 13.48L34.77 13.48L34.77 13.48Q34.58 13.22 34.31 12.77L34.31 12.77L32.92 10.49L31.46 10.49L31.46 13.95L32.90 14.08L32.83 14.40ZM56.40 6.15L56.40 9.75L58.52 9.75L58.52 9.75Q58.98 9.45 59.32 9.01L59.32 9.01L59.32 9.01Q59.65 8.57 59.65 8.02L59.65 8.02L59.65 8.02Q59.65 7.08 59.01 6.59L59.01 6.59L59.01 6.59Q58.37 6.11 57.24 6.11L57.24 6.11L57.24 6.11Q56.59 6.11 56.40 6.15L56.40 6.15ZM56.40 10.08L56.40 14.03L58.08 14.03L58.08 14.03Q58.72 14.03 59.18 13.85L59.18 13.85L59.18 13.85Q59.64 13.68 59.88 13.38L59.88 13.38L59.88 13.38Q60.12 13.08 60.23 12.74L60.23 12.74L60.23 12.74Q60.34 12.41 60.34 12.02L60.34 12.02L60.34 12.02Q60.34 11.68 60.23 11.36L60.23 11.36L60.23 11.36Q60.12 11.04 59.88 10.74L59.88 10.74L59.88 10.74Q59.64 10.45 59.20 10.26L59.20 10.26L59.20 10.26Q58.75 10.08 58.15 10.08L58.15 10.08L56.40 10.08ZM57.41 14.40L54.50 14.40L54.56 14.11L55.71 13.90L55.71 6.51L54.54 6.36L54.61 6.12L54.61 6.12Q54.73 6.10 55.17 6.03L55.17 6.03L55.17 6.03Q55.60 5.96 55.78 5.94L55.78 5.94L55.78 5.94Q55.95 5.91 56.31 5.87L56.31 5.87L56.31 5.87Q56.66 5.83 56.97 5.82L56.97 5.82L56.97 5.82Q57.29 5.80 57.63 5.80L57.63 5.80L57.63 5.80Q58.92 5.80 59.63 6.38L59.63 6.38L59.63 6.38Q60.35 6.96 60.35 7.79L60.35 7.79L60.35 7.79Q60.35 8.98 58.93 9.76L58.93 9.76L58.93 9.80L58.93 9.80Q59.92 9.86 60.49 10.46L60.49 10.46L60.49 10.46Q61.07 11.05 61.07 11.80L61.07 11.80L61.07 11.80Q61.07 12.22 60.96 12.58L60.96 12.58L60.96 12.58Q60.86 12.95 60.60 13.29L60.60 13.29L60.60 13.29Q60.33 13.63 59.93 13.87L59.93 13.87L59.93 13.87Q59.53 14.11 58.88 14.25L58.88 14.25L58.88 14.25Q58.24 14.40 57.41 14.40L57.41 14.40ZM70 6.36L68.78 6.18L68.82 5.89L75.02 5.89L74.81 8.07L74.49 8.03L74.36 6.24L70.71 6.24L70.71 9.89L73.00 9.89L73.25 8.94L73.62 8.89L73.40 11.55L73.05 11.61L72.94 10.26L70.71 10.26L70.71 14.03L74.55 14.03L75.06 12.19L75.34 12.26L75.13 14.40L68.80 14.40L68.84 14.11L70 13.90L70 6.36ZM87.11 6.98L85.74 10.75L88.43 10.75L87.11 6.98ZM85.79 14.40L83.06 14.40L83.10 14.11L84.07 13.90L87.06 5.82L87.42 5.73L90.26 13.95L91.16 14.08L91.11 14.39L88.31 14.39L88.38 14.10L89.51 13.90L88.56 11.13L85.61 11.13L84.59 13.95L85.85 14.08L85.79 14.40ZM100.06 6.33L98.83 6.16L98.85 5.89L101.96 5.89L101.93 6.16L100.78 6.32L100.78 11.01L100.78 11.01Q100.78 11.87 100.96 12.49L100.96 12.49L100.96 12.49Q101.14 13.10 101.49 13.45L101.49 13.45L101.49 13.45Q101.83 13.79 102.28 13.95L102.28 13.95L102.28 13.95Q102.73 14.11 103.32 14.11L103.32 14.11L103.32 14.11Q104.49 14.11 105.14 13.40L105.14 13.40L105.14 13.40Q105.78 12.68 105.78 11.33L105.78 11.33L105.78 6.33L104.51 6.16L104.54 5.89L107.45 5.89L107.39 6.16L106.26 6.32L106.24 11.05L106.24 11.05Q106.23 12.78 105.49 13.68L105.49 13.68L105.49 13.68Q104.75 14.58 103.09 14.58L103.09 14.58L103.09 14.58Q102.59 14.58 102.17 14.49L102.17 14.49L102.17 14.49Q101.75 14.40 101.35 14.16L101.35 14.16L101.35 14.16Q100.95 13.93 100.68 13.56L100.68 13.56L100.68 13.56Q100.40 13.19 100.23 12.60L100.23 12.60L100.23 12.60Q100.06 12.01 100.06 11.24L100.06 11.24L100.06 6.33ZM115.19 8.09L115.12 5.89L122.19 5.89L121.95 8.16L121.60 8.12L121.49 6.24L118.95 6.24L118.95 13.90L120.16 14.08L120.09 14.40L116.99 14.40L117.02 14.11L118.22 13.90L118.22 6.24L115.79 6.24L115.55 8.15L115.19 8.09ZM131.06 6.33L129.88 6.16L129.92 5.89L133.04 5.89L132.99 6.16L131.80 6.32L131.80 13.95L133.12 14.08L133.05 14.40L129.94 14.40L129.98 14.11L131.06 13.90L131.06 6.33ZM142.04 6.36L140.83 6.18L140.88 5.89L147.07 5.89L146.84 8.09L146.51 8.04L146.36 6.24L142.74 6.24L142.74 10.07L145.02 10.07L145.28 9.11L145.67 9.06L145.46 11.72L145.08 11.77L144.96 10.43L142.74 10.43L142.74 13.92L144.42 14.03L144.34 14.40L140.85 14.40L140.88 14.11L142.04 13.90L142.04 6.36ZM155.99 6.33L154.75 6.16L154.78 5.89L157.88 5.89L157.86 6.16L156.70 6.32L156.70 11.01L156.70 11.01Q156.70 11.87 156.88 12.49L156.88 12.49L156.88 12.49Q157.06 13.10 157.41 13.45L157.41 13.45L157.41 13.45Q157.76 13.79 158.21 13.95L158.21 13.95L158.21 13.95Q158.66 14.11 159.24 14.11L159.24 14.11L159.24 14.11Q160.42 14.11 161.06 13.40L161.06 13.40L161.06 13.40Q161.70 12.68 161.70 11.33L161.70 11.33L161.70 6.33L160.43 6.16L160.47 5.89L163.37 5.89L163.32 6.16L162.18 6.32L162.16 11.05L162.16 11.05Q162.16 12.78 161.42 13.68L161.42 13.68L161.42 13.68Q160.68 14.58 159.02 14.58L159.02 14.58L159.02 14.58Q158.52 14.58 158.09 14.49L158.09 14.49L158.09 14.49Q157.67 14.40 157.27 14.16L157.27 14.16L157.27 14.16Q156.88 13.93 156.60 13.56L156.60 13.56L156.60 13.56Q156.32 13.19 156.16 12.60L156.16 12.60L156.16 12.60Q155.99 12.01 155.99 11.24L155.99 11.24L155.99 6.33ZM177.22 14.40L171.07 14.40L171.10 14.11L172.26 13.90L172.26 6.34L171.08 6.17L171.11 5.90L174.22 5.90L174.19 6.17L172.99 6.32L172.99 14.03L176.61 14.03L177.14 12.09L177.44 12.14L177.22 14.40ZM191.32 14.40L185.17 14.40L185.21 14.11L186.36 13.90L186.36 6.34L185.19 6.17L185.21 5.90L188.32 5.90L188.30 6.17L187.09 6.32L187.09 14.03L190.72 14.03L191.24 12.09L191.54 12.14L191.32 14.40ZM200.20 6.35L199.25 6.15L199.27 5.90L202.13 5.90L202.10 6.15L200.96 6.32L203.10 10.49L205.22 6.34L203.96 6.14L203.97 5.89L206.64 5.89L206.62 6.14L205.73 6.32L203.35 11.05L203.35 13.94L204.59 14.08L204.53 14.40L201.39 14.40L201.43 14.11L202.62 13.90L202.62 11.05L200.20 6.35ZM226.15 6.19L226.15 14.03L227.38 14.03L227.38 14.03Q229.18 14.03 230.28 12.95L230.28 12.95L230.28 12.95Q231.38 11.87 231.38 10.12L231.38 10.12L231.38 10.12Q231.38 8.20 230.32 7.18L230.32 7.18L230.32 7.18Q229.27 6.16 227.34 6.16L227.34 6.16L227.34 6.16Q226.34 6.16 226.15 6.19L226.15 6.19ZM227.19 14.40L224.25 14.40L224.30 14.11L225.46 13.90L225.46 6.51L224.28 6.36L224.35 6.12L224.35 6.12Q226.43 5.79 227.59 5.79L227.59 5.79L227.59 5.79Q228.55 5.79 229.33 6.03L229.33 6.03L229.33 6.03Q230.10 6.26 230.62 6.66L230.62 6.66L230.62 6.66Q231.13 7.05 231.47 7.59L231.47 7.59L231.47 7.59Q231.81 8.13 231.96 8.71L231.96 8.71L231.96 8.71Q232.11 9.29 232.11 9.92L232.11 9.92L232.11 9.92Q232.11 10.64 231.94 11.28L231.94 11.28L231.94 11.28Q231.77 11.93 231.39 12.50L231.39 12.50L231.39 12.50Q231.01 13.08 230.44 13.49L230.44 13.49L230.44 13.49Q229.88 13.91 229.05 14.15L229.05 14.15L229.05 14.15Q228.22 14.40 227.19 14.40L227.19 14.40ZM241.06 6.36L239.83 6.18L239.88 5.89L246.07 5.89L245.86 8.07L245.55 8.03L245.42 6.24L241.77 6.24L241.77 9.89L244.06 9.89L244.31 8.94L244.68 8.89L244.45 11.55L244.10 11.61L244.00 10.26L241.77 10.26L241.77 14.03L245.61 14.03L246.11 12.19L246.39 12.26L246.19 14.40L239.85 14.40L239.89 14.11L241.06 13.90L241.06 6.36ZM254.11 13.60L254.11 13.60L254.32 11.66L254.65 11.71L254.84 13.21L254.84 13.21Q255.06 13.64 255.59 13.89L255.59 13.89L255.59 13.89Q256.12 14.14 256.72 14.14L256.72 14.14L256.72 14.14Q257.41 14.14 257.89 13.74L257.89 13.74L257.89 13.74Q258.36 13.33 258.36 12.61L258.36 12.61L258.36 12.61Q258.36 12.20 258.15 11.83L258.15 11.83L258.15 11.83Q257.93 11.46 257.59 11.18L257.59 11.18L257.59 11.18Q257.24 10.90 256.82 10.63L256.82 10.63L256.82 10.63Q256.40 10.36 255.99 10.07L255.99 10.07L255.99 10.07Q255.57 9.79 255.22 9.48L255.22 9.48L255.22 9.48Q254.88 9.17 254.66 8.75L254.66 8.75L254.66 8.75Q254.45 8.33 254.45 7.84L254.45 7.84L254.45 7.84Q254.45 6.88 255.14 6.29L255.14 6.29L255.14 6.29Q255.83 5.71 256.72 5.71L256.72 5.71L256.72 5.71Q257.30 5.71 257.84 5.90L257.84 5.90L257.84 5.90Q258.38 6.09 258.71 6.46L258.71 6.46L258.49 8.58L258.17 8.53L257.99 6.87L257.99 6.87Q257.80 6.54 257.39 6.32L257.39 6.32L257.39 6.32Q256.97 6.10 256.54 6.10L256.54 6.10L256.54 6.10Q255.94 6.10 255.53 6.48L255.53 6.48L255.53 6.48Q255.12 6.87 255.12 7.52L255.12 7.52L255.12 7.52Q255.12 7.96 255.34 8.35L255.34 8.35L255.34 8.35Q255.56 8.74 255.91 9.03L255.91 9.03L255.91 9.03Q256.27 9.32 256.69 9.61L256.69 9.61L256.69 9.61Q257.11 9.89 257.54 10.17L257.54 10.17L257.54 10.17Q257.97 10.45 258.32 10.75L258.32 10.75L258.32 10.75Q258.67 11.05 258.89 11.45L258.89 11.45L258.89 11.45Q259.12 11.85 259.12 12.29L259.12 12.29L259.12 12.29Q259.12 13.28 258.36 13.93L258.36 13.93L258.36 13.93Q257.61 14.57 256.37 14.57L256.37 14.57L256.37 14.57Q255.66 14.57 255.06 14.30L255.06 14.30L255.06 14.30Q254.45 14.03 254.11 13.60ZM268.00 6.33L266.81 6.16L266.85 5.89L269.98 5.89L269.93 6.16L268.73 6.32L268.73 13.95L270.05 14.08L269.99 14.40L266.88 14.40L266.92 14.11L268.00 13.90L268.00 6.33ZM277.79 10.27L277.79 10.27L277.79 10.27Q277.79 9.64 277.96 9.00L277.96 9.00L277.96 9.00Q278.13 8.36 278.48 7.78L278.48 7.78L278.48 7.78Q278.83 7.21 279.31 6.75L279.31 6.75L279.31 6.75Q279.79 6.30 280.45 6.04L280.45 6.04L280.45 6.04Q281.12 5.77 281.88 5.77L281.88 5.77L281.88 5.77Q282.62 5.77 283.32 5.94L283.32 5.94L283.32 5.94Q284.03 6.11 284.50 6.47L284.50 6.47L284.29 8.64L283.99 8.61L283.77 6.99L283.77 6.99Q283.51 6.65 282.96 6.41L282.96 6.41L282.96 6.41Q282.41 6.17 281.65 6.17L281.65 6.17L281.65 6.17Q280.25 6.17 279.41 7.27L279.41 7.27L279.41 7.27Q278.57 8.37 278.57 10.07L278.57 10.07L278.57 10.07Q278.57 10.69 278.68 11.25L278.68 11.25L278.68 11.25Q278.79 11.81 279.04 12.34L279.04 12.34L279.04 12.34Q279.30 12.87 279.68 13.25L279.68 13.25L279.68 13.25Q280.05 13.63 280.64 13.86L280.64 13.86L280.64 13.86Q281.23 14.09 281.96 14.09L281.96 14.09L281.96 14.09Q283.02 14.09 283.74 13.59L283.74 13.59L283.75 11.03L282.11 10.86L282.15 10.60L285.43 10.60L285.38 10.86L284.46 11.01L284.46 13.86L284.46 13.86Q283.81 14.25 283.08 14.39L283.08 14.39L283.08 14.39Q282.34 14.53 281.25 14.53L281.25 14.53L281.25 14.53Q280.55 14.53 279.91 14.23L279.91 14.23L279.91 14.23Q279.28 13.93 278.81 13.39L278.81 13.39L278.81 13.39Q278.35 12.85 278.07 12.04L278.07 12.04L278.07 12.04Q277.79 11.23 277.79 10.27ZM294.34 6.36L293.08 6.14L293.13 5.89L295.20 5.89L299.93 13.17L299.93 6.33L298.68 6.16L298.72 5.89L301.62 5.89L301.56 6.16L300.43 6.32L300.43 14.44L300.06 14.52L294.85 6.65L294.85 13.95L296.11 14.08L296.04 14.40L293.16 14.40L293.20 14.11L294.34 13.90L294.34 6.36ZM310.52 6.36L309.30 6.18L309.35 5.89L315.54 5.89L315.33 8.07L315.01 8.03L314.88 6.24L311.23 6.24L311.23 9.89L313.52 9.89L313.78 8.94L314.15 8.89L313.92 11.55L313.57 11.61L313.46 10.26L311.23 10.26L311.23 14.03L315.08 14.03L315.58 12.19L315.86 12.26L315.66 14.40L309.32 14.40L309.36 14.11L310.52 13.90L310.52 6.36ZM325.47 6.19L325.47 14.03L326.70 14.03L326.70 14.03Q328.50 14.03 329.60 12.95L329.60 12.95L329.60 12.95Q330.70 11.87 330.70 10.12L330.70 10.12L330.70 10.12Q330.70 8.20 329.64 7.18L329.64 7.18L329.64 7.18Q328.59 6.16 326.66 6.16L326.66 6.16L326.66 6.16Q325.66 6.16 325.47 6.19L325.47 6.19ZM326.51 14.40L323.57 14.40L323.62 14.11L324.78 13.90L324.78 6.51L323.60 6.36L323.67 6.12L323.67 6.12Q325.75 5.79 326.91 5.79L326.91 5.79L326.91 5.79Q327.87 5.79 328.65 6.03L328.65 6.03L328.65 6.03Q329.42 6.26 329.94 6.66L329.94 6.66L329.94 6.66Q330.45 7.05 330.79 7.59L330.79 7.59L330.79 7.59Q331.13 8.13 331.28 8.71L331.28 8.71L331.28 8.71Q331.43 9.29 331.43 9.92L331.43 9.92L331.43 9.92Q331.43 10.64 331.26 11.28L331.26 11.28L331.26 11.28Q331.09 11.93 330.71 12.50L330.71 12.50L330.71 12.50Q330.33 13.08 329.76 13.49L329.76 13.49L329.76 13.49Q329.20 13.91 328.37 14.15L328.37 14.15L328.37 14.15Q327.54 14.40 326.51 14.40L326.51 14.40ZM353.12 6.98L351.76 10.75L354.44 10.75L353.12 6.98ZM351.80 14.40L349.08 14.40L349.11 14.11L350.08 13.90L353.08 5.82L353.44 5.73L356.28 13.95L357.18 14.08L357.12 14.39L354.33 14.39L354.39 14.10L355.52 13.90L354.57 11.13L351.62 11.13L350.61 13.95L351.87 14.08L351.80 14.40ZM368.28 14.40L364.87 14.40L364.90 14.11L365.98 13.90L365.98 6.51L364.88 6.36L364.94 6.12L364.94 6.12Q365.11 6.09 365.56 6.02L365.56 6.02L365.56 6.02Q366.00 5.94 366.23 5.91L366.23 5.91L366.23 5.91Q366.46 5.88 366.87 5.84L366.87 5.84L366.87 5.84Q367.28 5.81 367.70 5.81L367.70 5.81L367.70 5.81Q368.39 5.81 368.98 5.96L368.98 5.96L368.98 5.96Q369.56 6.10 370.03 6.40L370.03 6.40L370.03 6.40Q370.49 6.69 370.75 7.18L370.75 7.18L370.75 7.18Q371.01 7.66 371.01 8.29L371.01 8.29L371.01 8.29Q371.01 8.90 370.73 9.43L370.73 9.43L370.73 9.43Q370.45 9.97 369.98 10.33L369.98 10.33L369.98 10.33Q369.52 10.69 368.92 10.90L368.92 10.90L368.92 10.90Q368.32 11.10 367.68 11.10L367.68 11.10L367.68 11.10Q367.41 11.10 367.34 11.09L367.34 11.09L367.27 10.80L367.64 10.78L367.64 10.78Q368.31 10.75 368.80 10.55L368.80 10.55L368.80 10.55Q369.30 10.36 369.59 10.03L369.59 10.03L369.59 10.03Q369.88 9.70 370.02 9.30L370.02 9.30L370.02 9.30Q370.16 8.90 370.16 8.43L370.16 8.43L370.16 8.43Q370.16 7.98 369.99 7.57L369.99 7.57L369.99 7.57Q369.82 7.16 369.50 6.83L369.50 6.83L369.50 6.83Q369.18 6.50 368.66 6.31L368.66 6.31L368.66 6.31Q368.14 6.11 367.49 6.11L367.49 6.11L366.73 6.15L366.73 13.95L368.33 14.08L368.28 14.40ZM382.11 14.40L378.70 14.40L378.73 14.11L379.81 13.90L379.81 6.51L378.70 6.36L378.77 6.12L378.77 6.12Q378.94 6.09 379.38 6.02L379.38 6.02L379.38 6.02Q379.83 5.94 380.06 5.91L380.06 5.91L380.06 5.91Q380.29 5.88 380.70 5.84L380.70 5.84L380.70 5.84Q381.11 5.81 381.53 5.81L381.53 5.81L381.53 5.81Q382.22 5.81 382.81 5.96L382.81 5.96L382.81 5.96Q383.39 6.10 383.85 6.40L383.85 6.40L383.85 6.40Q384.32 6.69 384.58 7.18L384.58 7.18L384.58 7.18Q384.84 7.66 384.84 8.29L384.84 8.29L384.84 8.29Q384.84 8.90 384.56 9.43L384.56 9.43L384.56 9.43Q384.28 9.97 383.81 10.33L383.81 10.33L383.81 10.33Q383.35 10.69 382.75 10.90L382.75 10.90L382.75 10.90Q382.15 11.10 381.51 11.10L381.51 11.10L381.51 11.10Q381.24 11.10 381.17 11.09L381.17 11.09L381.10 10.80L381.47 10.78L381.47 10.78Q382.14 10.75 382.63 10.55L382.63 10.55L382.63 10.55Q383.13 10.36 383.42 10.03L383.42 10.03L383.42 10.03Q383.71 9.70 383.85 9.30L383.85 9.30L383.85 9.30Q383.99 8.90 383.99 8.43L383.99 8.43L383.99 8.43Q383.99 7.98 383.82 7.57L383.82 7.57L383.82 7.57Q383.65 7.16 383.33 6.83L383.33 6.83L383.33 6.83Q383.01 6.50 382.49 6.31L382.49 6.31L382.49 6.31Q381.96 6.11 381.32 6.11L381.32 6.11L380.56 6.15L380.56 13.95L382.16 14.08L382.11 14.40ZM392.53 13.60L392.53 13.60L392.74 11.66L393.07 11.71L393.26 13.21L393.26 13.21Q393.48 13.64 394.01 13.89L394.01 13.89L394.01 13.89Q394.54 14.14 395.14 14.14L395.14 14.14L395.14 14.14Q395.83 14.14 396.31 13.74L396.31 13.74L396.31 13.74Q396.79 13.33 396.79 12.61L396.79 12.61L396.79 12.61Q396.79 12.20 396.57 11.83L396.57 11.83L396.57 11.83Q396.35 11.46 396.01 11.18L396.01 11.18L396.01 11.18Q395.66 10.90 395.24 10.63L395.24 10.63L395.24 10.63Q394.82 10.36 394.41 10.07L394.41 10.07L394.41 10.07Q393.99 9.79 393.64 9.48L393.64 9.48L393.64 9.48Q393.30 9.17 393.08 8.75L393.08 8.75L393.08 8.75Q392.87 8.33 392.87 7.84L392.87 7.84L392.87 7.84Q392.87 6.88 393.56 6.29L393.56 6.29L393.56 6.29Q394.26 5.71 395.14 5.71L395.14 5.71L395.14 5.71Q395.73 5.71 396.27 5.90L396.27 5.90L396.27 5.90Q396.81 6.09 397.13 6.46L397.13 6.46L396.91 8.58L396.59 8.53L396.41 6.87L396.41 6.87Q396.22 6.54 395.81 6.32L395.81 6.32L395.81 6.32Q395.39 6.10 394.96 6.10L394.96 6.10L394.96 6.10Q394.37 6.10 393.95 6.48L393.95 6.48L393.95 6.48Q393.54 6.87 393.54 7.52L393.54 7.52L393.54 7.52Q393.54 7.96 393.76 8.35L393.76 8.35L393.76 8.35Q393.98 8.74 394.33 9.03L394.33 9.03L394.33 9.03Q394.69 9.32 395.11 9.61L395.11 9.61L395.11 9.61Q395.53 9.89 395.96 10.17L395.96 10.17L395.96 10.17Q396.39 10.45 396.74 10.75L396.74 10.75L396.74 10.75Q397.09 11.05 397.31 11.45L397.31 11.45L397.31 11.45Q397.54 11.85 397.54 12.29L397.54 12.29L397.54 12.29Q397.54 13.28 396.79 13.93L396.79 13.93L396.79 13.93Q396.03 14.57 394.79 14.57L394.79 14.57L394.79 14.57Q394.08 14.57 393.48 14.30L393.48 14.30L393.48 14.30Q392.88 14.03 392.53 13.60Z"></path></g></svg>