<?xml version="1.0" encoding="UTF-8" standalone="no"?>
<!DOCTYPE svg PUBLIC "-//W3C//DTD SVG 1.1//EN" "http://www.w3.org/Graphics/SVG/1.1/DTD/svg11.dtd">
<svg width="100%" height="100%" viewBox="0 0 457 914" version="1.1" xmlns="http://www.w3.org/2000/svg" xmlns:xlink="http://www.w3.org/1999/xlink" xml:space="preserve" xmlns:serif="http://www.serif.com/" style="fill-rule:evenodd;clip-rule:evenodd;stroke-linejoin:round;stroke-miterlimit:1.41421;">
    <g transform="matrix(1,0,0,1,-214.946,-3914.21)">
        <g transform="matrix(4.16667,0,0,4.16667,0,0)">
            <g transform="matrix(1,0,0,1,153.653,1071.58)">
                <path d="M0,77.257C0.018,76.997 -0.098,76.723 -0.388,76.434C-1.303,75.528 -4.433,75.264 -5.678,75.259C-7.677,75.288 -9.847,75.605 -11.292,76.804C-10.064,77.058 -8.642,76.758 -7.461,76.635C-6.518,76.549 -5.575,76.558 -4.649,76.422C-3.738,76.288 -3.191,76.39 -2.288,76.458C-2.333,76.457 -0.258,76.373 -0.369,77.18C-0.471,77.981 -3.296,77.444 -3.918,77.508C-5.959,77.72 -8.039,77.979 -10.142,78.082C-8.563,78.969 -6.733,79.572 -5.028,79.553C-4.101,79.548 -0.08,78.663 0,77.257M-0.867,74.172C-1.455,72.459 -1.047,70.541 -0.866,68.9C-0.722,67.592 -1.073,66.176 -0.877,64.866C-0.915,64.929 -0.946,64.984 -0.959,65.017C-1.594,66.709 -2.668,68.007 -2.522,69.982C-2.462,70.782 -2.313,71.638 -2,72.419C-1.762,73.015 -1.019,73.728 -0.867,74.172M0.207,64.025C0.094,65.706 0.395,67.348 0.203,69.038C0.015,70.727 0.308,72.468 0.171,74.177C0.171,74.182 0.172,74.283 0.174,74.444C0.178,74.607 0.187,74.819 0.206,75.022C0.243,75.43 0.322,75.796 0.482,75.62C1.993,73.933 1.961,70.107 1.492,67.926C1.227,66.698 1.003,65.119 0.207,64.025M-30.722,56.566C-29.749,54.477 -29.663,51.916 -30.163,49.533C-30.309,48.827 -30.431,48.032 -30.808,47.388C-30.897,47.236 -30.997,47.165 -31.102,47.144C-31.13,47.625 -31.136,48.55 -31.144,48.66C-31.211,49.676 -31.205,50.711 -31.176,51.748C-31.096,53.339 -30.898,54.947 -30.722,56.566M-31.988,55.446C-32.059,54.656 -32.168,53.873 -32.231,53.079C-32.308,51.908 -32.335,50.705 -32.297,49.548C-32.281,49.116 -32.139,48.536 -32.048,47.984C-32.326,48.437 -32.556,48.942 -32.65,49.154C-33.542,51.144 -33.22,53.413 -31.988,55.446M-42.024,53.035C-42.8,52.791 -43.805,52.483 -44.601,52.42C-46.277,52.275 -47.9,52.745 -49.622,52.338C-50.106,52.224 -50.575,52.095 -51.041,52.015C-49.917,52.895 -48.572,53.416 -47.302,53.831C-46.091,54.245 -44.684,54.246 -43.513,54.076C-42.915,53.987 -42.31,53.509 -42.024,53.035M-46.155,51.156C-45.495,51.093 -44.752,51.115 -43.998,51.221C-44.957,50.927 -45.845,50.716 -46.853,50.532C-48.664,50.207 -50.843,49.831 -52.367,50.72L-52.236,50.743C-50.268,51.1 -48.012,51.332 -46.155,51.156M-41.675,48.834C-41.799,49.043 -42.008,49.211 -42.204,49.347L-42.244,49.376C-41.869,49.099 -41.376,48.979 -41.026,48.676C-40.484,48.212 -40.119,47.528 -39.824,46.865C-39.261,45.604 -38.976,44.162 -38.925,42.734C-38.878,41.429 -38.702,39.874 -39.172,38.56C-39.186,39.672 -39.671,40.821 -39.883,41.838C-40.141,43.067 -40.581,44.225 -40.951,45.419C-41.241,46.347 -41.214,48.048 -41.675,48.834M-42.666,47.616C-42.356,45.8 -41.541,44.233 -41.143,42.463C-40.83,41.082 -39.969,39.301 -39.918,37.766C-40.216,37.985 -40.5,38.694 -40.633,38.931C-41.908,41.156 -42.546,43.913 -42.658,46.664C-42.672,47.005 -42.675,47.31 -42.666,47.616M-49.018,41.032C-47.469,39.783 -47.1,38.523 -46.515,36.566C-46.291,35.818 -46.243,35.133 -46.302,34.448C-46.365,33.767 -46.529,33.079 -46.691,32.3C-46.802,31.813 -46.903,31.155 -47.025,30.53C-47.34,32.553 -47.871,34.523 -47.935,36.593C-47.992,37.966 -48.225,39.905 -49.018,41.032M-49.785,39.774C-49.694,39.306 -49.551,38.859 -49.415,38.336C-49.092,37.112 -49.231,35.94 -49.058,34.687C-48.813,32.991 -47.743,30.839 -47.967,29.146C-47.982,29.027 -47.937,28.93 -47.87,28.855C-48.33,28.917 -48.854,29.749 -49.083,30.061C-49.69,30.886 -50.361,31.598 -50.725,32.618C-51.079,33.611 -51.171,34.716 -51.067,35.848C-50.969,36.984 -50.6,38.091 -50.142,39.159L-49.785,39.774ZM-52.306,34.979C-52.323,34.263 -52.252,33.573 -52.104,32.919C-52.295,33.501 -52.422,34.089 -52.452,34.652L-52.306,34.979ZM-55.369,39.173C-54.615,39.511 -53.793,39.741 -53.021,39.843C-53.335,39.627 -53.651,39.413 -53.991,39.233C-54.985,38.707 -55.913,38.116 -56.865,37.501C-57.855,36.854 -58.852,36.083 -59.887,35.508C-60.134,35.369 -60.652,34.853 -60.898,34.884C-59.955,36.147 -58.792,37.214 -57.51,38.019C-56.853,38.428 -56.124,38.838 -55.369,39.173M-61.032,33.67C-60.577,33.902 -60.101,34.089 -59.651,34.341C-58.55,34.959 -57.503,35.688 -56.444,36.368C-55.863,36.741 -55.106,37.108 -54.347,37.514C-55.308,36.277 -56.36,35.162 -57.809,34.483C-59.24,33.804 -60.733,33.156 -62.189,32.757C-62.189,32.757 -61.418,33.454 -61.253,33.551L-61.032,33.67ZM-57.121,27.812C-58.401,27.139 -58.902,26.863 -59.743,26.191C-60.854,25.28 -61.933,24.515 -63.174,23.96C-63.684,23.742 -65.348,22.975 -64.34,22.356C-63.688,21.959 -62.317,23.078 -61.682,23.427C-60.989,23.823 -60.282,24.174 -59.648,24.723C-59.563,24.795 -59.475,24.868 -59.387,24.944C-59.779,24.53 -60.186,24.132 -60.628,23.753C-61.067,23.371 -61.512,22.987 -62.031,22.636C-62.882,22.048 -63.725,21.52 -64.674,21.176C-65.62,20.836 -67.735,20.649 -66.292,22.312C-63.855,25.236 -60.686,28.504 -57.121,27.812M-55.795,23.88C-54.812,22.295 -53.521,20.966 -52.561,19.386C-52.378,19.072 -51.512,17.308 -51.055,18.164C-50.481,19.202 -52.838,21.655 -53.349,22.327C-54.28,23.534 -54.778,25.153 -55.681,26.398C-54.907,26.341 -54.242,25.515 -53.702,25.025C-53.018,24.407 -52.441,23.67 -52.017,22.828C-51.482,21.76 -51.054,20.628 -50.799,19.442C-50.605,18.495 -50.711,16.954 -51.993,17.732C-52.892,18.278 -53.722,18.983 -54.383,19.837C-55.03,20.684 -55.502,21.677 -55.704,22.812C-55.766,23.152 -55.844,23.569 -55.795,23.88M-61.205,15.215C-61.082,15.165 -62.343,12.99 -62.46,12.837C-63.053,12.013 -63.762,11.263 -64.551,10.651C-65.842,9.641 -67.697,9.001 -69.149,9.25C-69.125,10.525 -67.067,11.349 -66.232,11.79C-65.577,12.133 -64.959,12.522 -64.326,12.901C-63.586,13.341 -61.632,14.238 -60.995,14.867C-60.611,15.231 -61.443,15.511 -62.208,15.227C-63.81,14.595 -65.383,13.7 -66.868,12.634C-67.35,12.286 -68.009,11.881 -68.59,11.396C-68.507,11.67 -68.453,11.848 -68.45,11.854C-67.816,12.966 -66.938,13.905 -65.95,14.557C-64.472,15.534 -62.759,15.863 -61.205,15.215M-65.603,1.466C-63.037,-0.956 -63.997,-4.735 -63.986,-8.003C-64.179,-6.481 -64.179,-4.99 -64.601,-3.513C-65.056,-1.889 -65.676,-0.263 -65.603,1.466M-66.768,0.233C-66.531,-1.281 -65.941,-2.806 -65.606,-4.03C-65.345,-4.99 -65.282,-5.931 -65.226,-6.879C-65.911,-6.103 -66.482,-5.193 -66.752,-4.167C-67.069,-2.968 -67.224,-1.608 -66.897,-0.308C-66.874,-0.212 -66.826,-0.011 -66.768,0.233M6.244,83.696C4.348,82.011 2.711,80.11 1.084,78.239C-0.364,80.442 -2.862,81.229 -5.559,80.95C-8.246,80.671 -11.145,79.369 -13.052,77.264C-13.335,76.961 -13.231,76.536 -12.982,76.341C-11.051,74.814 -9.289,74.266 -6.614,74.182C-5.218,74.109 -3.863,74.186 -2.506,74.408C-3.376,72.793 -4.888,71.763 -6.33,70.641C-7.351,69.881 -8.416,69.167 -9.52,68.516C-10.611,67.851 -11.789,67.308 -12.907,66.731C-14.941,65.735 -17.068,64.88 -19.193,64.005C-20.72,63.378 -21.833,62.856 -23.448,63.034C-25.824,63.282 -28.39,65.44 -29.834,67.043C-31.435,68.823 -33.368,71.048 -33.863,73.584C-34.914,78.651 -30.991,83.978 -25.09,85.253C-23.294,85.61 -21.122,85.502 -19.6,84.706C-18.075,83.912 -17.198,82.438 -17.906,80.118C-18.255,78.978 -18.84,77.843 -19.643,76.88C-20.428,75.896 -21.404,75.046 -22.606,74.541C-27.164,72.605 -28.518,76.481 -25.934,78.538C-23.916,80.14 -22.989,77.593 -24.282,77.591C-25.18,77.583 -25.419,76.216 -24.525,76.216C-23.128,76.21 -22.265,77.299 -22.068,78.421C-21.875,79.54 -22.338,80.681 -23.698,80.762C-26.673,80.912 -29.138,77.364 -28.547,74.885C-28.061,72.804 -26.235,72.311 -24.271,72.662C-22.303,73.017 -20.188,74.222 -19.006,75.642C-16.982,77.88 -16.172,80.394 -16.533,82.52C-16.896,84.641 -18.439,86.369 -21.238,86.944C-22.27,87.153 -23.459,87.108 -24.704,86.854C-25.939,86.587 -27.272,86.165 -28.474,85.487C-30.908,84.173 -33.138,82.239 -34.31,80.19C-36.449,76.191 -35.631,72.141 -33.67,69.184C-33.107,68.331 -32.035,67.045 -30.677,65.753C-31.871,66.167 -33.102,66.547 -34.376,66.753C-35.633,66.944 -36.921,66.948 -38.256,66.646C-39.903,66.273 -41.719,65.398 -43.162,64.155C-44.598,62.91 -45.567,61.214 -45.657,59.374C-45.759,56.812 -42.942,55.784 -40.789,57.64C-39.823,58.478 -39.443,60.35 -40.476,60.927C-42.119,61.843 -42.591,59.111 -41.33,59.586C-43.029,57.18 -45.012,58.265 -43.944,60.861C-43.504,61.937 -42.887,63.072 -41.846,63.744C-39.57,65.263 -36.977,65.782 -34.688,65.299C-32.612,64.882 -30.204,64.427 -28.318,63.53C-27.534,63.159 -25.946,62.473 -24.888,61.769C-25.241,62.005 -28.559,60.278 -29.06,59.981C-30.375,59.333 -31.69,58.656 -32.995,57.938C-33.648,57.577 -34.296,57.181 -34.936,56.771L-35.892,56.142C-36.196,55.917 -36.501,55.692 -36.803,55.469C-37.617,54.861 -38.846,53.606 -39.865,53.521C-41.291,53.398 -42.017,54.949 -43.18,55.392C-44.588,55.922 -46.498,55.475 -48.061,55.003C-49.458,54.585 -56.247,50.637 -52.904,49.275C-51.452,48.682 -49.762,48.68 -48.109,48.99C-46.762,49.244 -45.293,49.697 -44.004,49.829C-44.238,49.434 -44.583,49.076 -44.907,48.723C-45.804,48.271 -48.52,48.005 -49.585,47.641C-51.085,47.161 -52.631,46.508 -54.209,46.04C-55.784,45.571 -57.374,45.274 -58.86,45.442C-60.958,45.695 -65.476,46.858 -64.444,50.261C-64.113,51.345 -63.349,52.813 -62.417,53.54C-60.831,54.778 -60.349,53.239 -59.563,52.353C-60.266,53.149 -60.961,50.885 -60.156,50.592C-59.294,50.275 -58.343,51.792 -58.223,52.566C-57.705,55.254 -60.621,56.269 -62.698,54.915C-64.43,53.77 -65.746,51.393 -65.982,49.456C-66.143,48.134 -65.688,47.079 -64.899,46.247C-66.036,46.007 -67.419,45.537 -68.362,44.533C-69.995,42.793 -69.805,40.435 -68.335,39.408C-67.05,38.511 -64.351,38.826 -63.83,41.185C-63.634,42.068 -63.882,43.032 -64.508,43.478C-65.008,43.834 -65.728,43.839 -66.206,43.11C-66.659,42.421 -65.978,41.74 -65.382,42.306C-65.476,42.219 -65.101,41.838 -65.1,41.515C-65.1,40.983 -65.581,40.501 -66.061,40.375C-67.059,40.113 -67.969,40.86 -68.172,41.814C-68.47,43.214 -67.022,44.198 -65.89,44.591C-63.341,45.479 -61.545,44.009 -59.16,43.963C-54.408,43.844 -50.544,46.777 -45.922,47.586C-46.573,46.834 -47.216,46.055 -47.846,45.246C-48.486,44.447 -49.037,43.556 -49.615,42.664C-50.358,41.487 -50.43,41.267 -51.659,41.216C-52.412,41.185 -53.22,41.324 -53.99,41.145C-56.289,40.634 -58.233,39.429 -59.922,37.827C-60.765,37.025 -61.539,36.12 -62.24,35.14C-62.955,34.167 -63.497,33.052 -64.013,31.918C-64.203,31.489 -63.878,30.955 -63.468,31.032C-62.212,31.258 -61.08,31.537 -59.976,31.961C-58.881,32.392 -57.735,32.92 -56.555,33.705C-55.499,34.396 -54.605,35.283 -53.808,36.271C-53.408,36.764 -53.038,37.285 -52.673,37.812C-52.291,38.326 -51.926,38.853 -51.569,39.377C-51.476,39.514 -51.445,39.647 -51.445,39.766C-51.442,39.223 -52.373,37.759 -52.657,37.258C-53.363,36.041 -53.705,35.028 -54.225,33.72C-54.728,32.457 -55.191,31.127 -55.754,29.903C-56.241,28.71 -56.996,29.312 -57.904,29.331C-59.582,29.372 -61.223,28.847 -62.754,27.72C-63.486,27.178 -64.202,26.545 -64.882,25.87C-65.535,25.179 -66.164,24.45 -66.772,23.742C-67.415,23 -68.503,21.803 -68.5,20.749C-68.485,18.109 -65.137,19.542 -63.654,20.128C-61.606,20.95 -59.208,22.932 -57.557,25.015C-58.647,22.187 -59.534,19.27 -60.66,16.527C-61.529,16.915 -62.436,17.056 -63.341,16.982C-64.25,16.912 -65.151,16.625 -65.963,16.137C-67.607,15.178 -69.041,13.495 -69.886,11.471C-70.196,10.792 -70.985,9.247 -70.767,8.539C-70.242,6.861 -66.875,7.796 -65.698,8.443C-64.979,8.825 -64.239,9.345 -63.538,9.943C-63.917,9.202 -64.322,8.475 -64.744,7.759C-65.136,7.028 -65.552,6.312 -65.997,5.609C-66.884,4.204 -67.884,2.855 -69.021,1.563C-70.993,-0.832 -74.404,-4.676 -77.552,-4.218C-80.603,-3.761 -82.114,-0.89 -82.141,2.577C-82.26,5.931 -80.384,11.483 -76.589,9.25C-75.579,8.664 -74.324,7.794 -73.785,6.614C-72.687,4.242 -73.744,3.333 -74.898,3.175C-76.063,3.028 -77.418,3.707 -76.932,4.679C-76.527,5.424 -77.517,5.824 -77.926,5.095C-78.873,3.243 -77.735,2.142 -76.26,1.903C-75.521,1.782 -74.699,1.871 -74.005,2.181C-73.317,2.494 -72.75,3.025 -72.481,3.784C-70.989,8.227 -75.774,11.665 -79.281,10.937C-81.181,10.533 -82.483,8.725 -83.042,6.41C-83.559,4.075 -83.402,1.288 -82.608,-1.001C-82.226,-2.142 -81.626,-3.185 -80.905,-3.993C-80.183,-4.802 -79.323,-5.382 -78.346,-5.636C-77.369,-5.89 -76.273,-5.821 -75.079,-5.343C-73.894,-4.858 -72.514,-4 -71.077,-2.635C-69.866,-1.5 -68.808,-0.279 -67.815,0.981C-68.369,-0.764 -68.272,-3.102 -68.007,-4.169C-67.727,-5.292 -67.239,-6.352 -66.649,-7.278C-66.221,-7.982 -65.022,-9.606 -64.186,-9.777C-63.614,-9.896 -63.234,-9.631 -62.984,-9.148C-62.709,-8.673 -62.559,-7.982 -62.483,-7.237C-62.33,-5.75 -62.463,-4.035 -62.493,-3.474C-62.523,-2.916 -62.618,-2.268 -62.778,-1.597C-62.929,-0.928 -63.113,-0.249 -63.382,0.395C-63.91,1.677 -64.699,2.786 -65.789,3.139C-65.912,3.179 -66.026,3.172 -66.134,3.146C-65.336,4.275 -64.614,5.448 -63.953,6.661C-63.293,7.875 -62.595,9.079 -62.002,10.341C-61.894,8.764 -61.398,7.192 -60.683,5.838C-59.933,4.467 -58.98,3.32 -58.026,2.589C-55.914,0.973 -53.623,0.407 -51.152,1.738C-49.305,2.684 -47.837,5.028 -47.821,7.115C-47.808,8.236 -48.196,9.537 -48.855,10.398C-49.841,11.686 -52.068,12.992 -53.768,12.088C-55.012,11.462 -55.815,9.905 -55.524,8.552C-55.195,7.068 -53.394,6.436 -52.096,7.217C-51.607,7.513 -50.94,9.044 -51.804,9.239C-52.286,9.349 -52.592,8.475 -53.059,8.391C-53.692,8.277 -54.191,9.149 -54.08,9.736C-54.013,10.09 -53.769,10.381 -53.469,10.595C-53.156,10.803 -52.783,10.929 -52.475,10.968C-51.768,11.061 -51.032,10.854 -50.489,10.439C-49.932,10.013 -49.519,9.37 -49.303,8.663C-49.081,7.951 -49.018,7.155 -49.223,6.438C-49.764,4.501 -51.024,3.183 -52.528,2.643C-54.029,2.105 -55.717,2.317 -57.211,3.627C-58.717,4.947 -59.808,6.612 -60.322,8.648C-61.043,11.589 -60.285,14.274 -59.101,17.18C-58.834,17.87 -58.577,18.567 -58.327,19.267C-58.074,19.98 -57.83,20.696 -57.593,21.418L-56.827,23.549C-56.783,22.918 -56.748,22.295 -56.661,21.778C-56.492,20.696 -55.64,19.381 -54.968,18.591C-54.234,17.72 -51.557,14.953 -50.256,16.308C-49.505,17.122 -49.339,18.207 -49.5,19.337C-49.653,20.458 -50.088,21.592 -50.424,22.389C-50.934,23.599 -51.649,24.755 -52.537,25.677C-53.186,26.353 -54.829,26.99 -55.143,27.924C-55.368,28.583 -54.705,29.734 -54.421,30.374C-54.101,31.155 -53.683,31.892 -53.344,32.667C-53.036,31.622 -52.551,30.644 -52.171,29.915C-51.236,28.129 -50.086,26.481 -48.571,25.208C-47.216,24.073 -45.673,23.704 -43.997,23.182C-42.854,22.827 -41.748,22.104 -41.611,20.812C-41.494,19.921 -41.564,18.653 -42.354,18.04C-42.994,17.546 -43.969,17.703 -44.556,18.15C-44.842,18.366 -45.122,18.697 -45.066,19.108C-45.012,19.524 -44.871,19.837 -44.516,19.788C-44.383,19.583 -44.197,19.442 -43.916,19.396C-43.646,19.35 -43.374,19.564 -43.432,19.868C-43.574,20.618 -43.905,21.337 -44.844,21.079C-45.671,20.849 -46.141,20.148 -46.25,19.292C-46.466,17.611 -44.845,16.482 -43.343,16.538C-41.532,16.611 -40.447,18.227 -40.441,20.005C-40.415,20.702 -40.369,22.255 -41.829,23.321C-38.786,23.859 -35.965,25.822 -35.256,28.801C-34.671,31.566 -38.028,36.953 -41.193,34.146C-42.329,33.138 -42.844,31.563 -41.97,30.369C-41.396,29.584 -40.035,29.087 -39.601,30.442C-39.284,31.419 -41.05,31.115 -40.355,32.26C-39.156,34.236 -36.937,32.084 -36.607,30.879C-36.191,29.355 -36.979,27.663 -38.162,26.626C-42.457,22.778 -47.533,24.738 -50.164,29.056C-50.216,29.143 -50.273,29.236 -50.331,29.332C-49.522,28.218 -48.471,27.249 -47.331,27.392C-46.597,27.482 -46.09,29.045 -46.061,29.604C-46.009,30.578 -45.747,31.546 -45.497,32.518C-45.216,33.466 -44.941,34.415 -44.906,35.394C-44.836,37.314 -45.49,39.262 -46.742,40.546C-47.23,41.048 -48.221,41.507 -48.284,42.35C-48.315,42.846 -47.383,43.882 -47.039,44.298C-46.137,45.443 -44.739,47.161 -43.733,48.239C-43.777,48.111 -43.821,47.986 -43.848,47.874C-44.004,47.216 -43.772,46.378 -43.72,45.731C-43.579,43.946 -43.314,42.183 -42.712,40.586C-42.338,39.573 -41.187,36.01 -39.593,36.325C-38.432,36.56 -37.974,37.833 -37.793,39.244C-37.62,40.659 -37.729,42.219 -37.708,42.927C-37.669,44.236 -38.018,45.842 -38.63,47.293C-39.229,48.733 -40.086,50.012 -41.138,50.681C-41.196,50.716 -41.259,50.742 -41.324,50.762C-39.54,52.378 -37.639,53.855 -35.613,55.137C-34.577,55.784 -33.416,56.472 -32.301,56.888C-32.738,56.288 -33.128,55.672 -33.428,55.005C-33.972,53.853 -34.367,52.519 -34.348,51.29C-34.309,49.821 -33.809,48.611 -33.09,47.437C-32.744,46.868 -32.161,45.599 -31.241,45.753C-29.532,46.03 -29.198,48.538 -28.955,49.888C-28.675,51.287 -28.605,52.733 -28.777,54.121C-28.944,55.476 -29.647,56.66 -29.684,58.028C-28.89,58.352 -28.111,58.733 -27.335,59.114C-26.546,59.484 -25.738,59.834 -24.934,60.146C-23.367,60.745 -21.986,61.292 -20.389,61.483C-20.877,59.891 -21.372,58.525 -21.309,56.882C-21.224,54.709 -20.766,52.545 -19.608,50.748C-18.77,49.447 -16.956,48.606 -17.216,46.817C-17.4,45.536 -17.976,44.265 -18.823,43.279C-20.302,41.648 -22.853,39.893 -24.853,41.622C-25.574,42.249 -26.136,43.136 -26.065,44.182C-26.038,44.61 -25.857,45.346 -25.539,45.975C-25.221,46.603 -24.726,47.088 -24.152,47.065C-23.452,47.032 -22.961,46.262 -22.884,45.635C-22.874,45.56 -22.923,45.35 -22.976,45.137C-23.071,46.044 -24.976,44.96 -23.929,44.101C-23.623,43.85 -23.183,43.851 -22.765,43.986C-22.343,44.114 -21.955,44.389 -21.785,44.722C-21.335,45.61 -22.052,47.554 -22.809,48.037C-23.503,48.476 -24.405,48.386 -25.144,47.936C-25.509,47.714 -25.85,47.41 -26.15,47.058C-26.437,46.693 -26.679,46.27 -26.868,45.833C-27.245,44.954 -27.399,44.002 -27.221,43.216C-26.798,41.347 -25.517,40.288 -24.011,39.961C-22.498,39.632 -20.79,40.054 -19.383,41.165C-17.97,42.214 -15.534,45.709 -16.078,47.936C-13.731,47.173 -10.822,47.499 -8.719,48.733C-8.189,49.038 -7.721,49.415 -7.298,49.824C-6.869,50.226 -6.508,50.685 -6.237,51.2C-5.693,52.232 -5.502,53.487 -5.828,54.958C-6.304,57.106 -7.785,59.017 -9.545,59.678C-11.29,60.332 -13.374,59.759 -14.802,56.984C-15.524,55.493 -14.559,54.382 -13.4,54.024C-12.82,53.845 -12.193,53.854 -11.697,54.106C-11.199,54.355 -10.803,54.816 -10.726,55.596C-10.637,56.437 -11.946,56.482 -12.051,55.646C-12.127,55.134 -14.738,55.036 -13.435,56.815C-12.934,57.52 -12.293,58.068 -11.516,58.452C-9.902,59.022 -8.571,58.079 -7.912,56.772C-7.196,55.355 -6.959,53.787 -7.34,52.434C-7.53,51.755 -7.882,51.136 -8.398,50.597C-8.898,50.04 -9.573,49.575 -10.45,49.238C-15.043,47.495 -19.186,50.463 -19.848,55.105C-20.108,56.938 -20.167,58.849 -19.356,60.715C-19.111,61.277 -18.829,61.73 -18.507,62.099C-18.173,62.456 -17.805,62.736 -17.405,62.978C-16.607,63.459 -15.685,63.782 -14.662,64.247C-13.393,64.818 -12.163,65.45 -10.955,66.13C-9.477,66.9 -8.152,67.745 -6.935,68.659C-6.326,69.113 -5.744,69.588 -5.184,70.074C-4.907,70.324 -4.631,70.57 -4.357,70.819L-3.53,71.545C-3.721,70.572 -3.768,69.669 -3.676,69.081C-3.356,66.915 -2.449,63.881 -0.636,62.562C0.25,61.909 0.927,62.87 1.48,64.029C2.03,65.191 2.398,66.633 2.488,67.048C2.909,68.992 3.047,71.154 2.657,73.086C2.405,74.358 1.055,76.153 1.833,77.433C2.464,78.455 3.914,79.675 4.82,80.541C5.624,81.308 6.432,82.074 7.221,82.862C7.888,83.533 6.933,84.311 6.244,83.696" style="fill:rgb(35,31,32);fill-rule:nonzero;"/>
            </g>
        </g>
        <g transform="matrix(4.16667,0,0,4.16667,0,0)">
            <g transform="matrix(1,0,0,1,83.2114,948.944)">
                <path d="M0,104.082C0.176,103.895 0.258,103.614 0.21,103.211C0.134,102.574 -0.476,101.723 -1.19,100.922C-1.863,100.114 -2.635,99.355 -3.1,98.958C-4.587,97.69 -6.518,96.551 -8.402,96.535C-7.599,97.518 -6.285,98.195 -5.335,98.866C-4.572,99.409 -3.872,100.021 -3.091,100.51C-2.332,100.994 -1.97,101.415 -1.296,102.036C-1.331,102.006 0.352,103.246 -0.241,103.793C-0.822,104.343 -2.707,102.157 -3.235,101.811C-4.943,100.678 -6.629,99.525 -8.306,98.247C-7.666,99.945 -6.749,101.611 -5.39,102.674C-4.657,103.264 -0.943,105.114 0,104.082M1.348,100.227C1.338,100.607 1.332,100.967 1.253,101.184C1.548,100.352 2.105,99.628 2.739,98.971C3.368,98.316 4.062,97.73 4.67,97.162C5.632,96.261 6.32,94.961 7.28,94.105C7.21,94.13 7.152,94.152 7.121,94.168C5.551,95.041 3.917,95.338 2.723,96.937C2.24,97.585 1.791,98.335 1.511,99.129C1.405,99.434 1.373,99.84 1.348,100.227M8.66,94.148C7.503,95.338 6.62,96.779 5.374,97.945C4.754,98.528 4.192,99.204 3.679,99.877C3.165,100.549 2.655,101.229 2.065,101.838C2.062,101.84 1.999,101.919 1.9,102.043C1.802,102.168 1.674,102.337 1.561,102.504C1.336,102.838 1.168,103.167 1.404,103.134C2.527,102.967 3.679,102.137 4.679,101.119C5.686,100.098 6.502,98.898 7.065,97.91C7.666,96.813 8.567,95.469 8.66,94.148M-9.614,68.526C-8.558,68.089 -7.566,67.416 -6.693,66.598C-6.257,66.188 -5.85,65.743 -5.479,65.269C-5.099,64.799 -4.727,64.302 -4.411,63.787C-4.035,63.177 -3.582,62.524 -3.417,61.807C-3.378,61.638 -3.402,61.519 -3.465,61.432C-3.814,61.759 -4.451,62.418 -4.531,62.493C-5.274,63.18 -5.974,63.931 -6.664,64.704C-7.729,65.911 -8.639,67.219 -9.614,68.526M-8.446,63.774C-8.768,64.206 -9.051,64.684 -9.283,65.2C-9.495,65.715 -9.662,66.268 -9.789,66.849C-9.303,66.221 -8.867,65.575 -8.355,64.956C-7.586,64.049 -6.803,63.16 -5.98,62.352C-5.673,62.049 -5.173,61.729 -4.73,61.393C-5.243,61.528 -5.755,61.738 -5.969,61.826C-6.98,62.243 -7.8,62.914 -8.446,63.774M-15.463,58.189C-15.887,57.47 -16.322,56.545 -16.852,55.941C-17.962,54.659 -19.46,53.857 -20.423,52.338C-20.694,51.912 -20.943,51.484 -21.225,51.095C-21.021,52.536 -20.41,53.874 -19.778,55.073C-19.159,56.232 -18.258,57.215 -17.263,57.911C-16.764,58.263 -15.997,58.335 -15.463,58.189M-17.103,53.929C-16.581,54.349 -16.059,54.885 -15.587,55.489C-16.078,54.605 -16.574,53.826 -17.177,52.981C-18.258,51.47 -19.58,49.645 -21.28,49.203L-21.208,49.312C-20.035,50.979 -18.566,52.75 -17.103,53.929M-12.26,55.384C-12.494,55.448 -12.76,55.424 -12.996,55.386L-13.045,55.379C-12.583,55.439 -12.143,55.696 -11.682,55.723C-10.97,55.765 -10.232,55.525 -9.564,55.254C-8.285,54.737 -7.086,53.906 -6.066,52.927C-5.13,52.034 -3.965,51.056 -3.301,49.818C-4.126,50.581 -5.305,51.052 -6.144,51.624C-7.176,52.318 -8.292,52.835 -9.381,53.433C-10.23,53.894 -11.384,55.138 -12.26,55.384M-12.137,53.813C-10.66,52.722 -8.992,52.172 -7.485,51.191C-6.32,50.428 -4.366,49.783 -3.251,48.746C-3.619,48.691 -4.309,48.99 -4.58,49.063C-5.832,49.398 -7.071,49.937 -8.259,50.633C-9.402,51.331 -10.486,52.187 -11.475,53.133C-11.72,53.369 -11.933,53.587 -12.137,53.813M-12.041,44.627C-10.057,44.845 -8.935,44.212 -7.132,43.259C-5.718,42.534 -4.986,41.501 -4.147,40.183C-3.882,39.766 -3.495,39.242 -3.145,38.723C-4.777,39.891 -6.525,40.884 -8.122,42.273C-9.206,43.18 -10.677,44.394 -12.041,44.627M-11.71,43.187C-11.328,42.918 -10.901,42.706 -10.419,42.437C-9.301,41.808 -8.509,40.9 -7.496,40.148C-6.132,39.14 -3.867,38.418 -2.841,37.093C-2.77,36.999 -2.663,36.968 -2.564,36.963C-2.921,36.679 -3.896,36.867 -4.271,36.92C-5.277,37.052 -6.251,37.061 -7.223,37.51C-9.115,38.375 -10.59,40.339 -11.523,42.498C-11.602,42.725 -11.654,42.955 -11.71,43.187M-9.999,38.016C-9.507,37.501 -8.972,37.07 -8.408,36.721C-8.953,36.988 -9.455,37.308 -9.872,37.681L-9.999,38.016ZM-13.994,40.92C-14.047,40.544 -14.105,40.166 -14.203,39.795C-14.493,38.708 -14.76,37.611 -14.989,36.481C-15.11,35.891 -15.21,35.277 -15.32,34.666C-15.433,34.054 -15.5,33.453 -15.64,32.873C-15.703,32.596 -15.664,31.856 -15.855,31.699C-16.009,32.483 -16.09,33.276 -16.1,34.058C-16.083,34.846 -15.974,35.627 -15.808,36.378C-15.462,37.919 -14.909,39.669 -13.994,40.92M-15.034,30.753C-14.902,31.25 -14.723,31.727 -14.608,32.231C-14.329,33.464 -14.188,34.729 -13.895,35.987C-13.748,36.677 -13.472,37.485 -13.223,38.323C-13.126,37.537 -13.067,36.756 -13.1,35.98C-13.116,35.592 -13.156,35.203 -13.225,34.817C-13.277,34.436 -13.355,34.056 -13.473,33.672C-13.938,32.16 -14.427,30.624 -15.177,29.259C-15.177,29.259 -15.137,30.32 -15.094,30.508L-15.034,30.753ZM-10.484,24.915C-10.382,25.858 -10.175,26.748 -9.813,27.534C-9.441,28.322 -8.875,29.016 -8.135,29.555C-8.563,28.143 -8.675,27.591 -8.725,26.516C-8.792,25.08 -8.881,23.78 -9.356,22.462C-9.55,21.932 -10.133,20.151 -9,20.484C-8.269,20.702 -8.135,22.498 -7.951,23.212C-7.748,24.005 -7.568,24.754 -7.553,25.594C-7.551,25.705 -7.547,25.82 -7.544,25.934C-7.444,24.802 -7.426,23.664 -7.622,22.408C-7.777,21.369 -7.996,20.367 -8.337,19.438C-8.698,18.507 -9.942,16.796 -10.269,18.995C-10.517,20.909 -10.677,23.031 -10.484,24.915M-4.35,27.851C-2.501,27.504 -0.64,27.562 1.188,27.221C1.553,27.148 3.435,26.618 3.11,27.515C2.716,28.607 -0.702,28.518 -1.549,28.595C-3.081,28.72 -4.64,29.44 -6.129,29.639C-5.551,30.168 -4.502,30.089 -3.778,30.15C-2.857,30.23 -1.959,30.145 -1.037,29.893C0.124,29.57 1.262,29.132 2.323,28.537C3.174,28.058 4.236,26.972 2.782,26.541C0.763,25.945 -1.506,25.979 -3.484,27.201C-3.781,27.385 -4.147,27.604 -4.35,27.851M-1.511,18.067C-1.361,18.141 -0.659,15.726 -0.623,15.536C-0.414,14.541 -0.267,13.535 -0.314,12.541C-0.378,10.912 -1.065,9.099 -2.229,8.138C-3.151,9.01 -2.492,11.094 -2.283,12.015C-2.121,12.732 -2.021,13.448 -1.903,14.173C-1.771,15.012 -1.058,17.109 -1.109,17.996C-1.134,18.521 -1.892,18.086 -2.18,17.327C-2.806,15.695 -3.241,13.891 -3.344,12.086C-3.388,11.495 -3.5,10.73 -3.501,9.973C-3.659,10.216 -3.762,10.374 -3.766,10.38C-4.207,11.591 -4.39,12.859 -4.216,14.043C-3.933,15.827 -3.008,17.344 -1.511,18.067M8.126,4.447C7.384,4.822 6.662,5.255 6.004,5.822C7.791,6.053 9.204,5.364 10.469,4.359C11.807,3.395 13.026,2.12 14.307,1.13C13.003,1.913 11.839,2.834 10.419,3.424C9.622,3.743 8.869,4.069 8.126,4.447M6.216,4.151C6.85,3.75 7.545,3.415 8.219,3.116C8.919,2.83 9.606,2.583 10.188,2.332C11.104,1.938 11.879,1.406 12.653,0.865C11.617,0.814 10.547,0.938 9.573,1.367C8.439,1.87 7.247,2.584 6.53,3.698C6.473,3.78 6.357,3.946 6.216,4.151M0.761,112.975C0.326,110.488 0.174,108.016 0.219,105.518C-2.274,106.298 -4.736,105.336 -6.683,103.411C-7.684,102.458 -8.418,101.235 -9.008,99.916C-9.585,98.596 -9.961,97.164 -10.073,95.754C-10.105,95.341 -9.753,95.085 -9.436,95.097C-6.966,95.181 -5.223,95.889 -3.095,97.529C-2.001,98.372 -1.039,99.297 -0.17,100.334C0.223,98.541 -0.171,96.777 -0.63,95.024C-0.786,94.414 -0.976,93.807 -1.151,93.199C-1.313,92.589 -1.492,91.981 -1.687,91.379C-2.08,90.176 -2.541,88.993 -3.075,87.847L-3.811,86.312L-4.519,84.776C-5.016,83.752 -5.512,82.729 -6.006,81.711C-6.364,80.975 -6.689,80.328 -7.094,79.749C-7.479,79.166 -7.927,78.653 -8.579,78.181C-10.503,76.791 -13.854,76.677 -16,76.906C-18.379,77.164 -21.306,77.53 -23.37,79.118C-24.387,79.907 -25.238,80.92 -25.809,82.069C-26.369,83.217 -26.706,84.508 -26.81,85.864C-26.913,87.218 -26.783,88.633 -26.41,90.018C-25.982,91.394 -25.298,92.738 -24.375,93.963C-23.259,95.441 -21.556,96.804 -19.893,97.196C-18.199,97.586 -16.611,97.026 -15.608,94.772C-15.119,93.664 -14.81,92.408 -14.777,91.14C-14.726,89.869 -15.029,88.599 -15.556,87.409C-17.669,82.901 -21.256,84.927 -20.69,88.245C-20.481,89.539 -19.715,89.836 -19.198,89.718C-18.663,89.597 -18.349,89.059 -18.828,88.623C-19.494,88.018 -18.765,86.812 -18.098,87.409C-17.076,88.342 -17.084,89.734 -17.636,90.718C-18.192,91.697 -19.292,92.269 -20.392,91.43C-20.997,90.969 -21.431,90.35 -21.71,89.657C-21.981,88.962 -22.053,88.187 -22.01,87.429C-21.912,85.908 -21.26,84.448 -20.217,83.697C-18.471,82.442 -16.781,83.298 -15.549,84.871C-14.933,85.662 -14.431,86.636 -14.091,87.646C-13.749,88.655 -13.485,89.686 -13.484,90.612C-13.463,92.137 -13.716,93.512 -14.181,94.684C-14.414,95.27 -14.699,95.806 -15.031,96.283C-15.345,96.756 -15.708,97.171 -16.112,97.518C-17.732,98.909 -20.032,99.239 -22.59,97.845C-24.417,96.802 -26.043,94.521 -27.116,91.882C-27.678,90.569 -28.001,89.149 -28.154,87.766C-28.311,86.386 -28.287,85.04 -28.044,83.854C-27.624,81.609 -26.461,79.828 -25.082,78.523C-23.687,77.216 -22.001,76.37 -20.28,75.92C-19.291,75.661 -17.632,75.421 -15.759,75.371C-18.083,74.379 -20.459,73.169 -21.983,70.875C-22.942,69.461 -23.689,67.547 -23.909,65.616C-24.074,63.684 -23.647,61.737 -22.446,60.311C-20.77,58.343 -18.013,59.567 -17.706,62.424C-17.568,63.713 -18.586,65.359 -19.74,65.073C-21.536,64.615 -20.036,62.257 -19.433,63.486C-19.03,60.529 -21.219,59.94 -22.213,62.614C-22.606,63.719 -22.984,65 -22.662,66.221C-22.016,68.936 -20.456,71.109 -18.443,72.309C-16.615,73.413 -14.511,74.7 -12.519,75.3C-11.689,75.55 -10.051,76.1 -8.795,76.281C-9.222,76.225 -10.499,72.722 -10.704,72.164C-11.234,70.802 -11.743,69.412 -12.216,67.994C-12.686,66.574 -13.081,65.067 -13.314,63.579C-13.493,62.573 -13.533,60.809 -14.22,60.041C-15.177,58.964 -16.766,59.594 -17.918,59.107C-18.617,58.809 -19.232,58.246 -19.778,57.573C-20.315,56.901 -20.739,56.121 -21.136,55.396C-21.495,54.736 -22.223,52.506 -22.435,50.576C-22.488,50.096 -22.509,49.634 -22.485,49.225C-22.443,48.818 -22.354,48.46 -22.211,48.187C-21.925,47.638 -21.419,47.424 -20.595,47.772C-19.153,48.38 -18.023,49.577 -17.019,50.976C-16.221,52.113 -15.473,53.477 -14.631,54.477C-14.527,54.024 -14.531,53.523 -14.522,53.043C-14.841,52.087 -16.675,49.969 -17.114,48.954C-18.421,46.149 -19.809,42.615 -22.114,40.696C-23.728,39.365 -27.673,36.887 -29.48,40.12C-30.005,41.158 -30.49,42.799 -30.336,44.016C-30.073,46.086 -28.652,45.3 -27.471,45.22C-28.529,45.296 -27.44,43.125 -26.661,43.498C-25.826,43.893 -26.209,45.692 -26.664,46.348C-28.29,48.688 -30.989,47.347 -31.5,44.827C-31.715,43.771 -31.64,42.562 -31.361,41.417C-31.223,40.845 -31.033,40.29 -30.804,39.778C-30.548,39.27 -30.256,38.803 -29.938,38.407C-29.069,37.325 -27.968,36.895 -26.827,36.871C-27.456,35.859 -28.096,34.495 -28.043,33.064C-28.019,31.825 -27.482,30.819 -26.758,30.17C-26.037,29.52 -25.124,29.23 -24.243,29.406C-23.475,29.559 -22.699,30.201 -22.29,31.05C-21.876,31.9 -21.86,32.95 -22.49,34C-22.979,34.78 -23.834,35.293 -24.591,35.153C-25.194,35.042 -25.703,34.514 -25.522,33.631C-25.35,32.798 -24.392,32.812 -24.375,33.662C-24.377,33.53 -23.845,33.531 -23.615,33.3C-23.25,32.915 -23.221,32.217 -23.442,31.775C-23.917,30.854 -25.089,30.711 -25.94,31.242C-27.221,32.018 -26.851,33.819 -26.35,34.938C-25.185,37.465 -22.876,37.72 -21.223,39.418C-20.384,40.261 -19.772,41.189 -19.16,42.183C-18.561,43.176 -18.058,44.224 -17.585,45.284C-17.111,46.346 -16.667,47.424 -16.183,48.472C-15.939,48.998 -15.696,49.516 -15.415,50.022C-15.121,50.531 -14.808,51.026 -14.471,51.507C-14.446,51.005 -14.417,50.5 -14.378,49.992C-14.308,49.488 -14.236,48.981 -14.166,48.469C-14.009,47.446 -13.823,46.411 -13.603,45.364C-13.315,43.992 -13.212,43.784 -14.054,42.866C-14.579,42.302 -15.221,41.824 -15.615,41.145C-16.77,39.139 -17.316,36.856 -17.371,34.478C-17.366,32.111 -16.762,29.671 -15.845,27.315C-15.669,26.871 -15.064,26.738 -14.833,27.099C-13.414,29.281 -12.485,31.237 -12.046,34.042C-11.882,35.279 -11.818,36.566 -11.967,37.836C-12.1,39.11 -12.369,40.385 -12.658,41.633C-12.697,41.796 -12.772,41.908 -12.862,41.995C-12.464,41.614 -11.995,39.923 -11.849,39.364C-11.492,37.998 -11.02,37.035 -10.467,35.741C-9.901,34.499 -9.191,33.255 -8.668,32.006C-8.159,30.821 -9.113,30.683 -9.759,30.031C-10.952,28.824 -11.751,27.234 -11.884,25.341C-12.041,23.519 -11.848,21.501 -11.66,19.607C-11.553,18.613 -11.318,17 -10.518,16.289C-8.487,14.527 -7.395,18.009 -6.866,19.495C-6.681,20.015 -6.563,20.591 -6.433,21.223C-6.303,21.856 -6.211,22.528 -6.16,23.216C-6.058,24.591 -6.12,26.025 -6.381,27.326C-4.894,24.645 -3.593,21.949 -2.152,19.337C-3.886,18.558 -4.965,17.002 -5.373,15.1C-5.829,13.184 -5.405,11.013 -4.396,9.039C-4.049,8.369 -3.44,6.723 -2.777,6.416C-1.202,5.701 0.345,8.926 0.642,10.246C0.813,11.037 0.893,11.932 0.886,12.846C1.539,11.319 2.07,9.749 2.537,8.151C3.061,6.582 3.473,4.961 3.751,3.268C3.883,2.495 4.004,1.587 4.113,0.643C4.25,-0.286 4.348,-1.266 4.352,-2.222C4.36,-4.13 4.003,-5.954 2.826,-7.034C0.562,-9.126 -2.629,-8.469 -5.41,-6.257C-6.781,-5.23 -8.174,-3.389 -8.787,-1.666C-9.392,0.066 -9.147,1.682 -7.066,2.416C-5.964,2.812 -4.483,3.205 -3.217,2.854C-0.674,2.158 -0.61,0.781 -1.255,-0.234C-1.902,-1.24 -3.279,-1.844 -3.702,-0.821C-4.028,-0.025 -4.968,-0.529 -4.657,-1.319C-3.881,-3.295 -2.312,-3.128 -1.186,-2.136C-0.061,-1.142 0.686,0.658 -0.178,2.031C-1.444,4.044 -3.497,4.666 -5.46,4.427C-7.411,4.187 -9.281,3.049 -10.104,1.456C-11.004,-0.274 -10.368,-2.463 -8.946,-4.439C-8.587,-4.93 -8.198,-5.418 -7.736,-5.862C-7.269,-6.303 -6.763,-6.719 -6.233,-7.102C-5.174,-7.867 -4.018,-8.497 -2.861,-8.922C-0.546,-9.776 1.762,-9.797 3.386,-8.587C5.013,-7.379 5.969,-4.949 5.65,-1.007C5.582,-0.185 5.479,0.622 5.346,1.415C5.244,2.228 5.124,3.033 4.972,3.823C5.456,3.053 6.095,2.274 6.832,1.687C7.559,1.093 8.279,0.632 8.783,0.4C9.84,-0.084 10.977,-0.364 12.069,-0.479C12.905,-0.574 14.853,-0.688 15.521,-0.137C16.43,0.605 15.722,1.726 14.66,2.755C13.602,3.784 12.173,4.731 11.726,5.062C10.026,6.385 6.536,7.931 4.588,6.739C4.478,6.672 4.41,6.579 4.363,6.48C3.559,9.097 2.744,11.74 1.576,14.255C4.144,12.37 7.682,11.755 10.005,12.271C12.571,12.829 14.521,14.23 15.198,16.923C15.705,18.888 14.809,21.369 13.405,22.751C12.614,23.477 11.347,24.001 10.273,24.068C8.649,24.165 6.19,23.38 5.752,21.547C5.445,20.246 5.953,18.592 7.159,17.942C8.512,17.245 10.161,18.184 10.421,19.637C10.543,20.192 9.906,21.681 9.178,21.167C8.773,20.879 9.188,20.08 8.931,19.678C8.583,19.129 7.623,19.324 7.277,19.791C6.86,20.357 7.104,21.281 7.451,21.782C7.848,22.361 8.491,22.768 9.163,22.902C10.543,23.171 12.184,22.496 12.929,21.272C13.171,20.856 13.383,20.445 13.555,20.037C13.721,19.625 13.83,19.214 13.886,18.804C13.999,17.988 13.901,17.186 13.616,16.459C13.044,15.009 11.73,13.844 9.799,13.563C7.859,13.282 5.854,13.504 3.966,14.427C1.166,15.741 -0.123,18.163 -1.624,20.922C-1.966,21.577 -2.358,22.214 -2.668,22.881C-3.341,24.222 -4.05,25.551 -4.789,26.875C-4.284,26.482 -3.792,26.093 -3.344,25.812C-2.406,25.217 -0.916,24.951 0.121,24.921C1.248,24.875 5.055,25.016 4.993,26.87C4.928,29.052 2,30.164 0.369,30.755C-0.841,31.2 -2.156,31.465 -3.427,31.446C-4.359,31.437 -5.955,30.672 -6.837,31.085C-7.455,31.376 -7.814,32.656 -8.12,33.295C-8.487,34.062 -8.754,34.868 -9.104,35.647C-8.117,35.148 -7.059,34.829 -6.258,34.604C-4.296,34.058 -2.29,33.776 -0.325,34.01C1.433,34.22 2.759,35.08 4.278,35.922C5.314,36.498 6.601,36.799 7.651,36.053C8.363,35.545 9.197,34.656 9.071,33.688C8.957,32.9 8.196,32.312 7.468,32.183C7.121,32.119 6.667,32.129 6.422,32.442C6.169,32.758 6.048,33.068 6.331,33.292C6.567,33.253 6.798,33.292 7.027,33.462C7.247,33.626 7.289,33.964 7.035,34.124C6.41,34.52 5.673,34.763 5.195,33.916C4.782,33.17 4.925,32.354 5.477,31.715C6.594,30.463 8.523,30.902 9.488,32.007C10.6,33.33 10.3,35.176 9.042,36.351C8.541,36.822 7.422,37.868 5.641,37.547C6.433,38.779 7.074,40.247 7.256,41.691C7.444,43.139 7.163,44.564 6.301,45.808C5.559,46.963 3.653,47.854 1.889,47.98C0.124,48.103 -1.493,47.424 -1.655,45.331C-1.681,44.957 -1.667,44.584 -1.58,44.236C-1.486,43.89 -1.341,43.563 -1.149,43.28C-0.767,42.71 -0.196,42.304 0.542,42.204C1.512,42.074 2.81,42.689 2.109,43.906C1.604,44.791 0.622,43.355 0.253,44.616C-0.258,46.821 2.828,46.881 3.896,46.286C5.194,45.521 5.985,43.866 5.874,42.339C5.782,40.931 5.399,39.74 4.805,38.752C4.248,37.773 3.484,36.999 2.555,36.424C0.704,35.273 -1.761,34.932 -4.262,35.462C-4.362,35.482 -4.472,35.507 -4.583,35.529C-3.204,35.352 -1.773,35.454 -1.109,36.36C-0.888,36.654 -1.006,37.147 -1.179,37.63C-1.351,38.111 -1.627,38.572 -1.812,38.774C-3.103,40.191 -3.775,42.183 -5.168,43.581C-6.473,44.967 -8.278,45.88 -10.073,45.901C-10.772,45.911 -11.801,45.533 -12.432,46.087C-12.808,46.418 -12.837,47.825 -12.917,48.361C-13.176,49.808 -13.321,52.032 -13.339,53.516C-13.282,53.393 -13.228,53.271 -13.17,53.171C-12.829,52.588 -12.084,52.147 -11.599,51.72C-10.294,50.536 -8.803,49.475 -7.223,48.773C-6.233,48.316 -2.946,46.631 -2.018,47.967C-1.325,48.945 -1.941,50.138 -2.847,51.248C-3.694,52.36 -4.845,53.391 -5.317,53.908C-7.062,55.803 -10.756,57.57 -13.179,57.093C-13.245,57.078 -13.308,57.054 -13.368,57.021C-13.234,59.434 -12.809,61.826 -12.217,64.151C-11.941,65.335 -11.529,66.631 -10.994,67.694C-10.91,66.955 -10.78,66.239 -10.55,65.548C-10.125,64.333 -9.529,63.092 -8.668,62.215C-7.635,61.174 -6.445,60.644 -5.118,60.292C-4.477,60.119 -3.185,59.609 -2.619,60.345C-1.562,61.699 -3.017,63.716 -3.778,64.855C-4.549,66.054 -5.454,67.149 -6.528,68.049C-7.568,68.925 -8.889,69.32 -9.839,70.302C-9.47,71.077 -9.171,71.881 -8.835,72.682C-8.481,73.483 -8.13,74.282 -7.74,75.049C-6.981,76.535 -6.327,77.857 -5.273,79.051C-4.565,77.545 -4.014,76.21 -2.864,75.043C-1.343,73.502 0.463,72.227 2.499,71.688C3.998,71.298 5.9,71.872 6.922,70.421C7.655,69.386 8.095,68.107 8.139,66.856C8.157,66.324 8.115,65.745 7.999,65.172C7.903,64.6 7.759,64.036 7.512,63.532C7.024,62.528 6.184,61.761 4.87,61.709C3.915,61.67 2.9,61.921 2.237,62.71C1.704,63.347 0.724,65.303 1.654,66.039C2.19,66.479 3.073,66.252 3.556,65.857C3.613,65.809 3.719,65.628 3.823,65.441C3.49,65.732 3.139,65.371 3.066,64.944C3.002,64.519 3.191,64.031 3.854,64.074C4.637,64.127 5.16,65.236 4.982,65.934C4.712,66.861 2.868,67.78 1.984,67.626C1.176,67.482 0.573,66.818 0.334,66.004C0.074,65.197 0.202,64.225 0.524,63.347C0.848,62.47 1.385,61.688 2.051,61.25C3.636,60.213 5.294,60.331 6.618,61.103C7.941,61.879 8.929,63.3 9.161,64.998C9.496,66.66 8.888,70.714 7.022,71.962C9.272,72.938 11.202,75.038 11.918,77.26C12.734,79.482 12.41,81.871 9.951,83.627C8.165,84.904 5.795,85.385 4.047,84.747C2.304,84.121 1.181,82.338 1.916,79.369C2.309,77.809 3.825,77.622 4.903,78.106C6.007,78.596 6.823,79.733 5.898,80.975C5.403,81.65 4.401,80.844 4.882,80.16C5.189,79.736 3.208,77.985 3.073,80.128C2.974,80.971 3.085,81.789 3.403,82.574C4.221,84.035 5.836,84.186 7.197,83.641C8.673,83.05 9.898,82.047 10.522,80.817C10.834,80.202 10.995,79.528 10.961,78.809C10.945,78.449 10.878,78.08 10.759,77.699C10.663,77.316 10.511,76.925 10.301,76.524C8.088,72.343 3.02,71.741 -0.588,74.701C-2.013,75.871 -3.34,77.241 -3.994,79.159C-4.684,81.47 -3.695,82.832 -2.797,84.853C-2.267,86.11 -1.675,87.367 -1.179,88.652C-0.586,90.184 -0.161,91.675 0.145,93.147C0.524,94.603 0.777,96.044 0.943,97.487C1.442,96.624 1.997,95.904 2.432,95.52C4.047,94.086 6.671,92.388 8.923,92.532C11.104,92.644 8.788,97.097 8.383,97.868C7.44,99.605 6.228,101.324 4.699,102.556C3.694,103.37 1.543,103.891 1.306,105.371C1.208,105.967 1.233,106.73 1.297,107.502C1.368,108.271 1.527,109.033 1.606,109.651C1.762,110.741 1.921,111.836 2.049,112.934C2.156,113.867 0.921,113.879 0.761,112.975" style="fill:rgb(35,31,32);fill-rule:nonzero;"/>
            </g>
        </g>
    </g>
</svg>
